<?xml version="1.0" encoding="UTF-8"?>
<svg id="_레이어_2" data-name="레이어 2" xmlns="http://www.w3.org/2000/svg" viewBox="0 0 107.98 116.89">
  <defs>
    <style>
      .cls-1 {
        fill: #3d3736;
        stroke-width: 0px;
      }

      .cls-2 {
        fill: #ff9654;
        stroke: #ff9654;
      }

      .cls-2, .cls-3 {
        stroke-linecap: round;
        stroke-linejoin: round;
        stroke-width: 3.5px;
      }

      .cls-3 {
        fill: none;
        stroke: #3d3736;
      }
    </style>
  </defs>
  <g id="_레이어_1-2" data-name="레이어 1">
    <g>
      <rect class="cls-2" x="49.13" y="89.06" width="9.73" height="9.73" transform="translate(82.23 -10.67) rotate(45)"/>
      <polygon class="cls-2" points="53.99 93.27 47.11 115.14 60.87 115.14 53.99 93.27"/>
      <g>
        <g>
          <g>
            <line class="cls-3" x1="40.58" y1="63.13" x2="40.58" y2="72.44"/>
            <line class="cls-3" x1="67.4" y1="63.13" x2="67.4" y2="72.44"/>
            <path class="cls-3" d="M77.94,31.56v11.66c0,13.23-10.72,23.95-23.95,23.95h0c-13.23,0-23.95-10.72-23.95-23.95v-11.66s8.08-2.48,10.44-13.35h23.64s4.46,9.21,13.81,13.35Z"/>
            <path class="cls-3" d="M28.97,35.82c-3.23,0-5.84,2.62-5.84,5.84s2.62,5.84,5.84,5.84"/>
            <path class="cls-3" d="M79.01,47.51c3.23,0,5.84-2.62,5.84-5.84s-2.62-5.84-5.84-5.84"/>
            <ellipse class="cls-1" cx="44.66" cy="38.55" rx="2.73" ry="3.73"/>
            <path class="cls-1" d="M66.05,38.55c0,2.06-1.22,3.73-2.73,3.73s-2.73-1.67-2.73-3.73,1.22-3.73,2.73-3.73,2.73,1.67,2.73,3.73Z"/>
            <path class="cls-3" d="M47.5,51.39c3.58,3.58,9.39,3.58,12.97,0"/>
          </g>
          <g>
            <g>
              <polygon class="cls-3" points="34.85 70.22 54.23 84.88 44.78 96.7 26.81 77.31 34.85 70.22"/>
              <path class="cls-3" d="M27.28,80.62l-14.32,7.43c-6.89,3.57-11.21,10.68-11.21,18.44v8.65"/>
            </g>
            <g>
              <polygon class="cls-3" points="73.14 70.22 53.75 84.88 63.21 96.7 81.17 77.31 73.14 70.22"/>
              <path class="cls-3" d="M80.7,80.62l14.32,7.43c6.89,3.57,11.21,10.68,11.21,18.44v8.65"/>
            </g>
          </g>
        </g>
        <path class="cls-3" d="M77.94,31.56s7.46-25.64-14.28-28.95c-21.75-3.31-26,4.26-36.41.95,0,0-7.64,9.21,2.8,28.01"/>
      </g>
    </g>
  </g>
</svg>